<svg width="430" height="759" viewBox="0 0 430 759" fill="none" xmlns="http://www.w3.org/2000/svg">
<path d="M141.239 641.125C24.851 524.739 -90.3852 409.502 -206 293.888C-199.631 288.761 -194.13 291.187 -189.138 291.668C-69.6679 303.16 49.7725 314.948 169.257 326.293C179.879 327.302 185.793 329.693 186.935 341.933C198.383 464.683 210.365 587.379 222.244 710.086C222.454 712.258 223.238 714.371 223.755 716.511C222.247 717.38 220.739 718.248 219.231 719.117C193.617 693.503 168.004 667.89 141.239 641.125Z" fill="#AF0404" fill-opacity="0.2"/>
<path d="M15.4757 476.277C-41.2975 419.504 -96.8765 363.925 -152.391 308.411C-147.731 301.678 -142.428 304.571 -137.998 305.129C-42.9902 317.11 52 329.339 147.015 341.202C155.955 342.319 160.81 344.849 162.051 354.856C174.178 452.609 186.718 550.333 199.092 648.069C199.419 650.649 200.4 653.555 196.06 656.86C136.397 597.197 76.5333 537.334 15.4757 476.277Z" fill="black"/>
<path d="M119.315 367.354C127.301 368.336 135.958 365.649 136.346 376.9C138.338 434.55 140.669 492.145 143.084 555.028C77.198 489.142 14.803 426.747 -50.6378 361.306C7.96425 363.378 63.0308 365.325 119.315 367.354Z" fill="#AF0404" fill-opacity="0.2"/>
<path d="M482.7 574.206C436.935 619.971 391.623 665.284 346.162 710.745C344.145 708.241 345.1 706.078 345.289 704.115C349.808 657.137 354.443 610.172 358.904 563.189C359.3 559.012 360.241 556.686 365.054 556.238C413.321 551.736 461.567 547.024 509.817 542.353C510.671 542.271 511.501 541.962 512.343 541.759C512.685 542.352 513.026 542.945 513.368 543.538C503.296 553.61 493.224 563.682 482.7 574.206Z" fill="#AF0404" fill-opacity="0.2"/>
<path d="M417.88 623.658C395.556 645.982 373.701 667.836 351.872 689.665C349.225 687.833 350.362 685.748 350.582 684.006C355.293 646.647 360.102 609.296 364.767 571.934C365.205 568.419 366.2 566.51 370.135 566.022C408.573 561.254 447 556.323 485.431 551.457C486.445 551.329 487.588 550.943 488.888 552.65C465.427 576.11 441.888 599.649 417.88 623.658Z" fill="black"/>
<path d="M375.049 582.827C375.436 579.686 374.379 576.283 378.803 576.13C401.472 575.347 424.119 574.43 448.846 573.48C422.938 599.388 398.404 623.922 372.671 649.654C373.486 626.611 374.252 604.958 375.049 582.827Z" fill="#AF0404" fill-opacity="0.2"/>
<path d="M449.7 100.206C403.935 145.971 358.623 191.284 313.162 236.745C311.145 234.241 312.1 232.078 312.289 230.115C316.808 183.137 321.443 136.172 325.904 89.1885C326.3 85.0118 327.241 82.6864 332.054 82.2375C380.321 77.7361 428.567 73.0242 476.817 68.3534C477.671 68.2707 478.501 67.9624 479.343 67.7594C479.685 68.3523 480.026 68.9452 480.368 69.5382C470.296 79.6098 460.224 89.6815 449.7 100.206Z" fill="#AF0404" fill-opacity="0.2"/>
<path d="M384.88 149.658C362.556 171.982 340.701 193.836 318.872 215.665C316.225 213.833 317.362 211.748 317.582 210.006C322.293 172.647 327.102 135.296 331.767 97.9345C332.205 94.4194 333.2 92.5103 337.135 92.0222C375.573 87.2538 414 82.3226 452.431 77.4571C453.445 77.3287 454.588 76.9428 455.888 78.6496C432.427 102.11 408.888 125.649 384.88 149.658Z" fill="black"/>
<path d="M342.049 108.827C342.436 105.686 341.379 102.283 345.803 102.13C368.472 101.347 391.119 100.43 415.846 99.4801C389.938 125.388 365.404 149.922 339.671 175.654C340.486 152.611 341.252 130.958 342.049 108.827Z" fill="#AF0404" fill-opacity="0.2"/>
</svg>
